<?xml version="1.0" encoding="utf-8"?>
<!-- Generator: Adobe Illustrator 22.1.0, SVG Export Plug-In . SVG Version: 6.00 Build 0)  -->
<svg version="1.1" id="图层_1" xmlns="http://www.w3.org/2000/svg" xmlns:xlink="http://www.w3.org/1999/xlink" x="0px" y="0px"
	 viewBox="0 0 24 24" style="enable-background:new 0 0 24 24;" xml:space="preserve">
<g>
	<path d="M7.2,16.1c-0.6-0.5-1.7-1.2-2.7-1.7l0.4-0.6c0.9,0.4,2.1,1.1,2.7,1.6L7.2,16.1z M5,23.2c0.8-1.2,1.8-3.2,2.6-4.8l0.6,0.5
		c-0.7,1.6-1.7,3.5-2.6,4.8L5,23.2z M5.7,9.5c0.9,0.5,2,1.4,2.5,2L7.8,12c-0.5-0.6-1.6-1.5-2.5-2L5.7,9.5z M19.2,20.8h-4.8
		c0.9,1.3,2.6,2.1,4.8,2.4c-0.2,0.2-0.4,0.5-0.5,0.7c-2.4-0.4-4.2-1.4-5.1-3.1h-0.1c-0.6,1.3-1.9,2.5-4.8,3.2
		c-0.1-0.2-0.3-0.5-0.4-0.6c2.5-0.6,3.8-1.5,4.4-2.5H8.4v-0.7h4.5c0.1-0.4,0.2-0.9,0.3-1.3h-4v-0.7h4v0V17H9.4v-2.9h3.9v-0.9h-2.3
		v-2H8.5v-0.7h2.3V9.2h0.7v1.4h4V9.2h0.7v1.4h2.8v0.7h-2.8v2H14v0.9h4V17h-4v1.1v0.1h4.5v0.7h-4.5c0,0.5-0.1,0.9-0.2,1.3h5.4V20.8z
		 M13.2,16.4v-1.6h-3.1v1.6H13.2z M11.6,12.6h4v-1.3h-4V12.6z M14,14.8v1.6h3.3v-1.6H14z"/>
</g>
<g>
	<path d="M7.1,0c0,0.1,0,0.3-0.1,0.4c0,0.3-0.1,1-0.3,1.6C7.2,2,7.7,2,7.9,2c0.8,0,1.4,0.3,1.4,1.5c0,1.1-0.2,2.6-0.6,3.4
		C8.5,7.5,8.1,7.6,7.5,7.6c-0.4,0-0.8-0.1-1.1-0.1L6.4,6.9C6.8,7,7.3,7.1,7.5,7.1c0.4,0,0.7-0.1,0.9-0.5c0.3-0.7,0.5-2,0.5-3.1
		c0-0.9-0.4-1.1-1-1.1c-0.3,0-0.7,0-1.2,0.1c-0.3,1.3-0.9,3.4-2,5.1L4.1,7.4c1-1.3,1.7-3.6,2-4.9C5.5,2.6,5,2.7,4.7,2.7
		C4.5,2.7,4.2,2.7,4,2.8L3.9,2.2c0.3,0,0.5,0,0.7,0c0.3,0,0.9-0.1,1.6-0.1C6.4,1.4,6.5,0.7,6.5,0L7.1,0z M10.3,1.1
		c0.6,0.7,1.4,2.4,1.8,3.3l-0.5,0.2c-0.3-0.9-1.1-2.6-1.8-3.3L10.3,1.1z"/>
	<path d="M17,0.7c-0.4,0.6-1.4,2.5-1.9,3.5c0.5-0.5,1.1-0.7,1.6-0.7c0.6,0,1.1,0.4,1.1,1.1c0,0.6,0,1.3,0,1.8c0,0.5,0.4,0.8,0.8,0.8
		c1.2,0,1.9-1.4,2.1-2.3l0.4,0.3c-0.5,1.5-1.3,2.5-2.6,2.5c-1,0-1.2-0.7-1.3-1.1c0-0.6,0-1.3,0-1.9c0-0.5-0.3-0.7-0.8-0.7
		c-0.8,0-1.6,0.8-2,1.6c-0.3,0.6-0.8,1.7-0.9,2.2L13,7.5c0.7-1.9,2.9-5.9,3.4-6.9c0.1-0.2,0.2-0.4,0.3-0.6l0.6,0.2
		C17.2,0.3,17.1,0.5,17,0.7z"/>
</g>
</svg>
